<svg width="65" height="48" viewBox="0 0 65 65" fill="none" xmlns="http://www.w3.org/2000/svg">
    <circle cx="32.5" cy="32.5" r="32.5" fill="#0F51FD"/>
    <path d="M48.8307 17.0038C45.3105 17.219 38.3138 18.0023 33.9945 20.8504C33.6964 21.0469 33.5275 21.3963 33.5275 21.7617V46.9401C33.5275 47.7393 34.3388 48.2444 35.0229 47.8735C39.4668 45.4641 45.8938 44.8067 49.0716 44.6268C50.1566 44.5653 51 43.6283 51 42.5053V19.1281C51.0006 17.9026 50.014 16.9318 48.8307 17.0038ZM31.0055 20.8504C26.6869 18.0023 19.6901 17.2196 16.1699 17.0038C14.9867 16.9318 14 17.9026 14 19.1281V42.506C14 43.6297 14.8434 44.5666 15.9284 44.6275C19.1075 44.8074 25.5376 45.4655 29.9816 47.8763C30.6638 48.2465 31.4725 47.742 31.4725 46.9449V21.7492C31.4725 21.3832 31.3042 21.0476 31.0055 20.8504Z" fill="white"/>
</svg>
